<mxfile host="app.diagrams.net" modified="2022-01-28T11:47:45.760Z" agent="5.0 (Windows NT 10.0; Win64; x64) AppleWebKit/537.36 (KHTML, like Gecko) Chrome/97.0.4692.99 Safari/537.36" etag="L7Qry1LeWt8I75w0OrVZ" version="16.4.7" type="github">
  <diagram id="6c5zNXQw_hCXURs7wEC6" name="Page-1">
    <mxGraphModel dx="821" dy="429" grid="1" gridSize="10" guides="1" tooltips="1" connect="1" arrows="1" fold="1" page="1" pageScale="1" pageWidth="1169" pageHeight="827" math="0" shadow="0">
      <root>
        <mxCell id="0" />
        <mxCell id="1" parent="0" />
        <mxCell id="rqrvkVYyMI6aMXBywih_-9" style="edgeStyle=orthogonalEdgeStyle;rounded=0;orthogonalLoop=1;jettySize=auto;html=1;entryX=0;entryY=0.5;entryDx=0;entryDy=0;" edge="1" parent="1" source="rqrvkVYyMI6aMXBywih_-3" target="rqrvkVYyMI6aMXBywih_-7">
          <mxGeometry relative="1" as="geometry" />
        </mxCell>
        <mxCell id="rqrvkVYyMI6aMXBywih_-3" value="" style="strokeColor=#dddddd;shadow=1;strokeWidth=1;rounded=1;absoluteArcSize=1;arcSize=2;" vertex="1" parent="1">
          <mxGeometry x="120" y="190" width="170" height="60" as="geometry" />
        </mxCell>
        <mxCell id="rqrvkVYyMI6aMXBywih_-4" value="&lt;font color=&quot;#000000&quot;&gt;RouteSummaryView&lt;/font&gt;" style="sketch=0;dashed=0;connectable=0;html=1;fillColor=#5184F3;strokeColor=none;shape=mxgraph.gcp2.hexIcon;prIcon=bigquery;part=1;labelPosition=right;verticalLabelPosition=middle;align=left;verticalAlign=middle;spacingLeft=5;fontColor=#999999;fontSize=12;" vertex="1" parent="rqrvkVYyMI6aMXBywih_-3">
          <mxGeometry y="0.5" width="44" height="39" relative="1" as="geometry">
            <mxPoint x="5" y="-19.5" as="offset" />
          </mxGeometry>
        </mxCell>
        <mxCell id="rqrvkVYyMI6aMXBywih_-12" value="" style="edgeStyle=orthogonalEdgeStyle;rounded=0;orthogonalLoop=1;jettySize=auto;html=1;" edge="1" parent="1" source="rqrvkVYyMI6aMXBywih_-7" target="rqrvkVYyMI6aMXBywih_-11">
          <mxGeometry relative="1" as="geometry" />
        </mxCell>
        <mxCell id="rqrvkVYyMI6aMXBywih_-7" value="" style="strokeColor=#dddddd;shadow=1;strokeWidth=1;rounded=1;absoluteArcSize=1;arcSize=2;" vertex="1" parent="1">
          <mxGeometry x="415" y="190" width="185" height="60" as="geometry" />
        </mxCell>
        <mxCell id="rqrvkVYyMI6aMXBywih_-8" value="&lt;font color=&quot;#000000&quot;&gt;Route Summary API&lt;/font&gt;&lt;br&gt;Apigee API Platform" style="sketch=0;dashed=0;connectable=0;html=1;fillColor=#5184F3;strokeColor=none;shape=mxgraph.gcp2.hexIcon;prIcon=apigee_api_platform;part=1;labelPosition=right;verticalLabelPosition=middle;align=left;verticalAlign=middle;spacingLeft=5;fontColor=#999999;fontSize=12;" vertex="1" parent="rqrvkVYyMI6aMXBywih_-7">
          <mxGeometry y="0.5" width="44" height="39" relative="1" as="geometry">
            <mxPoint x="5" y="-19.5" as="offset" />
          </mxGeometry>
        </mxCell>
        <mxCell id="rqrvkVYyMI6aMXBywih_-11" value="User" style="sketch=0;outlineConnect=0;fontColor=#232F3E;gradientColor=none;strokeColor=#232F3E;fillColor=#ffffff;dashed=0;verticalLabelPosition=bottom;verticalAlign=top;align=center;html=1;fontSize=12;fontStyle=0;aspect=fixed;shape=mxgraph.aws4.resourceIcon;resIcon=mxgraph.aws4.user;" vertex="1" parent="1">
          <mxGeometry x="690" y="190" width="60" height="60" as="geometry" />
        </mxCell>
      </root>
    </mxGraphModel>
  </diagram>
</mxfile>
